<?xml version="1.0" encoding="UTF-8"?>
<svg version="1.1" xmlns="http://www.w3.org/2000/svg" width="512" height="512">
<path d="M0 0 C3.46543114 0.00775674 6.93084213 0.00050775 10.39627457 -0.0041585 C16.20873756 -0.00957062 22.02108509 -0.00254563 27.83353043 0.01186323 C34.49160935 0.02818093 41.14941236 0.02288916 47.80748463 0.00638402 C53.59080216 -0.00736228 59.37403811 -0.00908729 65.15736675 -0.00129998 C68.58223278 0.00330537 72.00697049 0.00420452 75.43182755 -0.00590944 C94.45283093 -0.04443078 113.75971396 0.17531791 132.02786636 6.15297651 C132.84287613 6.40974165 133.65788589 6.66650679 134.49759293 6.93105268 C164.17037334 16.55473537 190.87895615 34.34980641 209.71536636 59.40297651 C210.6009523 60.56506636 210.6009523 60.56506636 211.50442886 61.75063276 C236.10877402 95.39904086 240.86967634 132.59432594 240.88333511 173.12563276 C240.88655883 175.40179161 240.88992369 177.67795027 240.89342117 179.95410872 C240.899374 184.70521731 240.9012651 189.45630782 240.9006691 194.20741987 C240.90056778 200.22901197 240.91420601 206.25048535 240.93144131 212.27204943 C240.94268238 216.96960665 240.94458462 221.66713628 240.94405937 226.36470556 C240.94522189 228.58136036 240.94954349 230.79801629 240.95739174 233.0146575 C240.99363828 244.30966064 240.78694986 255.51622251 239.83377457 266.77577925 C239.75724498 267.68831244 239.68071539 268.60084564 239.60186672 269.54103136 C236.48498067 302.6811237 221.40766558 332.43329621 198.71536636 356.40297651 C197.89552261 357.28727339 197.07567886 358.17157026 196.23099136 359.08266401 C169.54348934 386.95452263 131.03650822 402.24429951 92.79405403 403.49880743 C89.8031726 403.53823503 86.81368322 403.54955574 83.8225441 403.54824018 C82.70039001 403.5515988 81.57823593 403.55495741 80.42207718 403.5584178 C76.74769325 403.56784107 73.07335534 403.5698667 69.39896011 403.57094526 C66.81603859 403.57416438 64.23311723 403.57752893 61.65019608 403.58103132 C56.24637731 403.58700147 50.84257644 403.58891664 45.43875504 403.58827925 C39.24383208 403.58768034 33.04899672 403.59820438 26.85409588 403.61402291 C20.83880478 403.62882063 14.82356018 403.63226333 8.80824852 403.63166952 C6.27568645 403.63283859 3.74312352 403.637199 1.2105732 403.64500189 C-46.09445842 403.77708533 -87.47191421 393.00186332 -122.28463364 359.40297651 C-123.13670395 358.61407026 -123.98877426 357.82516401 -124.86666489 357.01235151 C-153.91362003 329.3834367 -165.91100466 290.48314031 -167.3985405 251.41106367 C-167.57357266 244.27337424 -167.56564601 237.13609748 -167.55025864 229.99672651 C-167.55161216 227.73057212 -167.55355834 225.46441802 -167.55605698 223.1982646 C-167.55897598 218.48896679 -167.55481603 213.77974574 -167.54537582 209.07045698 C-167.5339834 203.1039819 -167.54056041 197.13768691 -167.55252075 191.1712184 C-167.55982746 186.50369164 -167.55741152 181.83620596 -167.55226517 177.16867781 C-167.55095288 174.97156454 -167.55248888 172.77444725 -167.55722427 170.5773387 C-167.57609935 159.36575918 -167.34823153 148.23771291 -166.40865707 137.06117964 C-166.3333086 136.1498049 -166.25796013 135.23843016 -166.18032837 134.299438 C-162.67972509 96.7921506 -143.43914175 61.46846929 -115.17916489 36.76625776 C-98.28722773 22.97459517 -79.52480069 12.79345149 -58.72213364 6.21547651 C-57.99864731 5.97740278 -57.27516098 5.73932905 -56.52975082 5.49404097 C-38.17960449 -0.03542328 -18.98035613 -0.05605098 0 0 Z M-82.70650864 89.54750776 C-96.76281472 106.07410526 -101.42684343 124.54222205 -101.44576645 145.71938276 C-101.45040178 147.06551958 -101.45542739 148.4116551 -101.46081161 149.75778913 C-101.47387299 153.40082712 -101.48036885 157.04384672 -101.48482227 160.68690443 C-101.48776453 162.97005152 -101.49187156 165.25319372 -101.49632645 167.53633833 C-101.50998794 174.70016406 -101.51965989 181.86397845 -101.52352834 189.0278163 C-101.52799904 197.2588023 -101.5455065 205.48962142 -101.57452893 213.72055674 C-101.59625572 220.10729473 -101.60623852 226.49398617 -101.60756946 232.88076067 C-101.60861011 236.68348902 -101.61435746 240.48606024 -101.63238907 244.28874922 C-101.64906019 247.87411982 -101.65093478 251.45921839 -101.64225006 255.04461432 C-101.64113179 256.96086717 -101.65470306 258.87711177 -101.66900253 260.7933116 C-101.56794746 282.20629716 -94.61002088 301.23349522 -79.85494614 316.98891401 C-62.45869661 333.32764077 -41.41177463 338.5569201 -18.20602036 338.54824018 C-16.91060822 338.5515988 -15.61519608 338.55495741 -14.28052902 338.5584178 C-10.74504675 338.56720712 -7.20958873 338.56959384 -3.67409658 338.57023358 C-1.45812323 338.57094726 0.75784407 338.57308762 2.97381592 338.5757308 C10.72523511 338.58496927 18.47663716 338.58906779 26.22806168 338.58827925 C33.41933284 338.58767968 40.61052869 338.59821148 47.80178082 338.61402291 C54.00253781 338.62716383 60.20327039 338.63246037 66.40404117 338.63182384 C70.09546046 338.63157066 73.78681283 338.63432079 77.47821808 338.64500189 C81.60565837 338.65661946 85.73293357 338.65189626 89.86038589 338.64589643 C91.05983337 338.65151594 92.25928085 338.65713545 93.49507523 338.66292524 C116.42811012 338.57881123 136.80180709 332.43858003 153.71536636 316.40297651 C169.62082099 300.13544649 174.85670487 280.23880811 174.87649918 258.08657026 C174.88113451 256.74043344 174.88616012 255.39429792 174.89154434 254.04816389 C174.90460571 250.40512591 174.91110158 246.76210631 174.915555 243.1190486 C174.91849726 240.8359015 174.92260429 238.5527593 174.92705917 236.2696147 C174.94072067 229.10578897 174.95039262 221.94197458 174.95426106 214.77813673 C174.95873176 206.54715072 174.97623923 198.3163316 175.00526166 190.08539629 C175.02698844 183.69865829 175.03697125 177.31196686 175.03830218 170.92519236 C175.03934283 167.122464 175.04509019 163.31989279 175.0631218 159.51720381 C175.07979292 155.9318332 175.08166751 152.34673464 175.07298279 148.76133871 C175.07186452 146.84508586 175.08543579 144.92884125 175.09973526 143.01264143 C174.99770208 121.39240105 167.94726062 101.91450811 152.76224136 86.29750776 C136.35981498 70.23989306 115.50254645 64.90654521 93.21536636 65.01479292 C91.83849043 65.0107125 90.46161777 65.0053625 89.08475113 64.99886274 C85.39458327 64.98535765 81.70467116 64.99041698 78.01449966 65 C74.12181366 65.00768505 70.22914713 65.00052678 66.33646011 64.9958415 C59.80386873 64.99040936 53.27137965 64.99750829 46.73880386 65.01186323 C39.22527744 65.02818485 31.7119954 65.02289453 24.19847488 65.00638402 C17.7054017 64.99269615 11.21240136 64.99088488 4.71931839 64.99870002 C0.85972473 65.00333672 -2.99975471 65.00411353 -6.85934067 64.99409056 C-10.49081275 64.98531582 -14.12197496 64.99163045 -17.75341415 65.00877333 C-19.69342264 65.01452261 -21.63345787 65.00581327 -23.573452 64.99639082 C-46.3010696 65.15744905 -66.92670956 72.81019661 -82.70650864 89.54750776 Z " fill="#000000" transform="translate(219.2846336364746,53.597023487091064)"/>
<path d="M0 0 C2.58821698 -0.00202519 5.17643339 -0.00494032 7.76464844 -0.00869751 C13.1673789 -0.01309988 18.56994697 -0.00705039 23.97265625 0.00732422 C30.1774425 0.02364448 36.38193278 0.01835362 42.58671188 0.001845 C48.60899611 -0.01352346 54.63113813 -0.0117521 60.65344238 -0.0030098 C63.19209842 -0.00102339 65.73076212 -0.00341156 68.26940918 -0.01044846 C90.09416495 -0.05768377 108.06196408 1.1251174 126.25 14.3984375 C127.24 15.0996875 128.23 15.8009375 129.25 16.5234375 C140.86882338 26.62113358 147.50877267 41.32739288 149.25 56.3984375 C149.82172229 65.4736873 149.69733763 74.58302269 149.68359375 83.671875 C149.68700544 85.65389689 149.6904273 87.63591897 149.69494683 89.61793864 C149.70891323 95.83615814 149.70749744 102.05424004 149.69604492 108.27246094 C149.68457443 114.64029115 149.69863918 121.00769964 149.7254414 127.37547433 C149.7477513 132.8868188 149.75420165 138.39803238 149.74836498 143.9094187 C149.74503001 147.18171794 149.74894073 150.4536918 149.76461601 153.72596359 C149.86063179 177.05212168 148.11645373 197.38630123 130.97265625 214.7734375 C117.5648106 227.70037046 101.72234783 232.86580297 83.29980469 232.81835938 C81.44841133 232.83106369 81.44841133 232.83106369 79.55961609 232.84402466 C76.21000447 232.86326191 72.86095306 232.86918268 69.51132488 232.86727715 C66.69633242 232.86715637 63.88139041 232.87576384 61.06641221 232.88405466 C54.41386857 232.90320937 47.76145036 232.90620211 41.10888672 232.89941406 C34.29001838 232.89278319 27.47169231 232.91561704 20.65293384 232.95272779 C14.75946574 232.98361596 8.86617033 232.99476421 2.97262311 232.99089098 C-0.53002741 232.98884262 -4.03225578 232.99400035 -7.53482819 233.01878357 C-30.74298966 233.17015038 -48.85676477 231.24625227 -66.43359375 214.7421875 C-84.88019341 196.07783708 -85.21499453 174.7878529 -85.1484375 150.0546875 C-85.15046207 147.39538056 -85.15337332 144.73608605 -85.15713501 142.07678223 C-85.16256374 136.52265882 -85.15547741 130.96865583 -85.14111328 125.41455078 C-85.12479227 119.03083661 -85.13008284 112.64741009 -85.1465925 106.26370287 C-85.16029032 100.74220365 -85.16208688 95.22079006 -85.15427649 89.69927931 C-85.14964513 86.41928138 -85.15005948 83.13944505 -85.15888596 79.85945129 C-85.20938409 55.8244701 -83.60353003 35.45224751 -65.75 17.3984375 C-46.29225654 0.34325078 -24.47147481 -0.06783268 0 0 Z M99.25 36.3984375 C96.5979377 40.47853335 95.90617625 44.22589474 96.625 49.0234375 C97.82073251 53.23766549 99.76030374 55.70162329 103.26171875 58.296875 C106.60370586 60.14842778 109.4419904 60.82638525 113.25 60.3984375 C117.69887067 59.0775524 120.59551046 57.10201376 123.75 53.7109375 C125.68604356 49.43550798 125.95139318 46.01736822 125.25 41.3984375 C123.2598036 36.68481445 119.80654346 33.67670923 115.25 31.3984375 C108.68662671 30.46272237 103.78526781 31.36196759 99.25 36.3984375 Z M-1.75 50.3984375 C-2.73355469 50.89085937 -3.71710938 51.38328125 -4.73046875 51.890625 C-23.02171288 61.78162118 -35.65491846 78.1736743 -41.8515625 97.90625 C-46.76974402 118.08458352 -43.23221209 138.31031894 -32.5 156.0234375 C-20.99022983 173.26328721 -3.67183955 185.53156576 16.78125 189.73828125 C37.90362383 193.29860878 59.41699357 189.44403501 77.08447266 177.11865234 C93.05201314 165.14847582 104.5176114 147.94890556 107.796875 128.0859375 C110.3562991 107.25752066 105.15809261 87.70316608 92.375 70.9609375 C76.95257379 53.11754903 57.66661415 44.56916946 34.53125 42.109375 C22.18522775 41.64428512 9.19290335 44.85887647 -1.75 50.3984375 Z " fill="#000000" transform="translate(223.75,138.6015625)"/>
<path d="M0 0 C12.76380993 8.97348355 20.92721652 19.7775771 24.80078125 34.953125 C27.00252444 49.80365812 24.60103479 64.00088816 16.18359375 76.53515625 C6.55955198 89.10909589 -5.96509738 97.15988367 -21.81640625 99.53515625 C-39.19562503 100.52499127 -54.63263453 97.37649415 -68.06640625 85.53515625 C-78.85992513 75.46341363 -84.56889252 62.38936159 -85.21386719 47.65771484 C-85.37399149 39.419124 -83.85776943 32.19684816 -80.81640625 24.53515625 C-80.53925781 23.79910156 -80.26210937 23.06304687 -79.9765625 22.3046875 C-74.62232589 9.94306289 -62.64550864 0.91099643 -50.6875 -4.421875 C-34.16981639 -10.42217639 -15.14706828 -9.08824097 0 0 Z " fill="#000000" transform="translate(285.81640625,209.46484375)"/>
</svg>
